<svg id="Layer_1" enable-background="new 0 0 512 512" height="512" viewBox="0 0 512 512" width="512" xmlns="http://www.w3.org/2000/svg"><g><g><path d="m391.704 191.841h-271.408c-39.977 0-72.5-32.523-72.5-72.5s32.523-72.5 72.5-72.5c5.794 0 11.465.666 16.971 1.988 12.114-23.976 36.826-39.67 64.681-39.67 21.784 0 41.808 9.668 55.292 25.559 13.398-14.276 32.279-22.718 52.812-22.718 26.499 0 50.688 14.709 63.313 37.199 5.971-1.557 12.147-2.358 18.339-2.358 39.977 0 72.5 32.523 72.5 72.5s-32.524 72.5-72.5 72.5z" fill="#7d0"/></g><path d="m391.704 46.841c-6.192 0-12.368.802-18.339 2.358-12.625-22.49-36.814-37.199-63.313-37.199-20.533 0-39.414 8.442-52.811 22.718-.402-.473-.828-.922-1.241-1.385v158.508h135.704c39.977 0 72.5-32.523 72.5-72.5s-32.524-72.5-72.5-72.5z" fill="#00ab5e"/><g><g><path d="m116.001 269.841c-46.869 0-85-38.131-85-85s38.131-85 85-85 85 38.131 85 85-38.131 85-85 85z" fill="#ac5e2e"/></g></g><g><g><path d="m396 269.841c-46.869 0-85-38.131-85-85s38.131-85 85-85 85 38.131 85 85-38.131 85-85 85z" fill="#913f02"/></g></g><g><g><path d="m255.941 269.841c-46.869 0-85-38.131-85-85s38.13-85 85-85 85 38.131 85 85-38.131 85-85 85z" fill="#913f02"/></g></g><path d="m256 99.842v169.997c46.842-.032 84.941-38.149 84.941-84.999s-38.099-84.965-84.941-84.998z" fill="#673416"/><g><path d="m256 502.841c-68.371 0-132.651-26.537-181.001-74.723-48.364-48.199-74.999-112.286-74.999-180.457 0-17.071 1.71-34.163 5.083-50.801 1.418-6.993 7.566-12.02 14.701-12.02h472.433c7.135 0 13.283 5.026 14.701 12.02 3.372 16.638 5.082 33.73 5.082 50.801 0 68.171-26.635 132.258-74.999 180.457-48.35 48.186-112.63 74.723-181.001 74.723z" fill="#fdbf00"/></g><path d="m506.917 196.86c-1.418-6.993-7.566-12.02-14.701-12.02h-236.216v318c68.371 0 132.651-26.537 181.001-74.723 48.364-48.198 74.999-112.285 74.999-180.456 0-17.071-1.71-34.163-5.083-50.801z" fill="#ff9100"/></g></svg>